<?xml version="1.0" encoding="UTF-8"?>
<svg width="410px" height="214px" viewBox="0 0 410 214" version="1.1" xmlns="http://www.w3.org/2000/svg" xmlns:xlink="http://www.w3.org/1999/xlink">
    <title>Mobile Assets/SVG &amp; PDF/bg</title>
    <defs>
        <polygon id="path-1" points="0 0 410 0 410 214 0 214"></polygon>
    </defs>
    <g id="Mobile" stroke="none" stroke-width="1" fill="none" fill-rule="evenodd">
        <g id="Mobile-Assets/SVG-&amp;-PDF/bg">
            <mask id="mask-2" fill="white">
                <use xlink:href="#path-1"></use>
            </mask>
            <use id="Mask" fill="#EDE8E2" xlink:href="#path-1"></use>
            <g id="Group-29" opacity="0.306754703" mask="url(#mask-2)" fill="#D5BEA1">
                <g transform="translate(187.5, 140.5) scale(1, -1) translate(-187.5, -140.5)translate(0, -8)">
                    <path d="M123.156928,165.842497 C124.43935,162.710464 128.475704,124.930993 126.536703,87.0323945 C124.396068,45.1927538 95.3008797,3.6390838 95.9657157,0 C95.5063005,2.51615888 125.025482,45.3167646 127.651454,87.0323945 C129.890055,122.594331 125.492042,157.013133 124.81325,159.101881 C119.582859,175.197251 109.902531,189.652341 97.4018762,201.008275 C84.9889986,212.287827 69.7683871,220.542696 53.4087677,224.340737 C36.4553147,228.276264 18.5513844,227.166831 2.02632357,221.831624 C1.8799642,221.785795 1.73608549,221.730419 1.58991694,221.682681 C1.5422118,221.932829 1.49336173,222.182976 1.44775562,222.435033 C16.071862,227.224117 31.7590298,228.73264 47.0300179,226.353374 C80.5507031,221.128919 110.316612,197.1835 123.156928,165.842497 Z" id="Fill-3"></path>
                    <path d="M176.939704,247.803047 C188.156137,244.929215 198.990928,240.361636 208.488068,233.684034 C218.023371,226.981608 228.096561,218.88933 234.355476,209.087748 C236.988725,204.964868 269.491395,167.06911 291.776324,125.062629 C311.850114,87.2240831 319.785471,44.2358833 321.272137,40.142918 C320.995448,40.1715608 320.718758,40.2021132 320.443976,40.226937 C319.400551,43.0702115 311.032325,86.6402869 291.060336,124.321118 C270.015227,164.026585 239.716701,200.489198 237.06041,203.934475 C229.243829,214.072779 222.536278,221.375248 213.142181,229.17374 C203.879751,236.86148 192.936192,242.276887 181.450702,245.752219 C157.187867,253.094336 131.493878,252.003998 106.637592,248.904842 C79.4452795,245.513529 52.2304507,239.771593 24.6914177,240.999417 C16.4615176,241.366045 8.13601639,242.34754 0,244.129125 C0.0116400544,244.394549 0.0175554919,244.661882 0.0309129314,244.927306 C6.66517148,243.455063 13.4274706,242.519397 20.1579027,242.028649 C47.4566926,240.042745 74.5516862,245.397048 101.487345,249.000318 C126.509645,252.349622 152.215083,254.138845 176.939704,247.803047 Z" id="Fill-4"></path>
                    <path d="M346.371191,266.988026 C336.753834,264.878003 327.266236,261.935428 318.490398,257.415586 C310.313737,253.203179 302.608403,247.59109 297.150934,240.092393 C291.54081,232.385558 288.861689,223.042261 289.697483,213.529017 C291.233589,196.053062 302.617944,182.08681 317.332117,173.780385 C316.956201,173.709733 316.578376,173.646718 316.200551,173.583704 C303.848736,180.72532 294.004303,191.664978 290.239414,206.045596 C287.838891,215.217036 288.390362,224.951785 292.41286,233.584738 C296.269343,241.86443 302.902266,248.496204 310.407239,253.544983 C318.328201,258.872553 327.28341,262.60758 336.425623,265.252269 C347.399714,268.427806 358.734455,270.360243 370.132167,271.089681 C371.046198,271.148876 371.960228,271.185157 372.876167,271.227167 C372.931505,270.97511 372.988751,270.723053 373.042181,270.470996 C364.075523,270.060448 355.141304,268.912825 346.371191,266.988026" id="Fill-5"></path>
                    <path d="M351.895446,247.027781 C359.806867,247.449785 367.748819,245.482977 375,242.030559 C374.980918,241.799507 374.963744,241.568454 374.942754,241.339312 C368.935722,244.186411 362.436374,245.941262 355.671785,246.267791 C348.084759,246.634419 340.335536,244.646606 334.683431,239.366774 C329.586614,234.604424 327.031527,227.680493 328.983621,220.834853 C329.848038,217.796802 331.561607,214.949703 334.028917,212.950432 C337.234702,210.353481 341.367876,209.692786 345.375107,209.570576 C348.983524,209.461733 352.609115,209.719519 356.202266,209.259324 C358.822233,208.923248 361.383045,208.205267 363.808374,207.166487 C363.6748,206.948801 363.543133,206.727296 363.405743,206.509611 C362.613837,206.845687 361.806666,207.15121 360.986138,207.414725 C353.5823,209.784443 345.657522,207.487286 338.314747,209.83409 C332.57868,211.667232 328.760361,216.805759 327.790992,222.654628 C326.777735,228.77465 329.073307,234.747638 333.353412,239.133812 C338.232694,244.134853 344.999191,246.661152 351.895446,247.027781" id="Fill-7"></path>
                    <path d="M279.047788,272.265947 C275.616834,264.08937 272.18588,255.910882 268.753018,247.732395 C266.350587,242.011464 263.826031,235.773052 258.647161,231.984558 C253.178244,227.986017 245.73815,227.986017 239.628075,230.432116 C233.13636,233.032886 227.982296,238.075937 223.580066,243.367225 C214.813769,253.905883 208.524324,266.426626 205.032307,279.672988 C203.536274,285.351909 202.559273,291.156859 202.112753,297 L202.897025,297 C204.217503,279.888764 210.117675,263.132699 220.112856,249.109161 C224.200233,243.374863 228.963114,237.676846 234.899542,233.781419 C240.998167,229.779059 249.155746,227.850441 255.977581,231.249392 C262.207873,234.354276 265.165592,241.157907 267.722587,247.235919 C270.916923,254.826273 274.095994,262.422356 277.282697,270.016529 C281.05522,279.010383 284.829651,288.004237 288.604081,297 L289.42461,297 C285.966941,288.754679 282.507364,280.511268 279.047788,272.265947" id="Fill-8"></path>
                </g>
            </g>
        </g>
    </g>
</svg>