<?xml version="1.0" encoding="UTF-8"?>
<svg width="16px" height="16px" viewBox="0 0 16 16" version="1.1" xmlns="http://www.w3.org/2000/svg" xmlns:xlink="http://www.w3.org/1999/xlink">
    <title>Website Assets/SVG &amp; PDF/calendar</title>
    <g id="Webapp" stroke="none" stroke-width="1" fill="none" fill-rule="evenodd">
        <g id="1" transform="translate(-1022, -352)">
            <g id="Website-Assets/SVG-&amp;-PDF/calendar" transform="translate(1022, 352)">
                <rect id="Rectangle" x="0" y="0" width="16" height="16"></rect>
                <path d="M10.5,1.5 C10.7761424,1.5 11,1.72385763 11,2 L11,2.5 L12,2.5 C13.3807119,2.5 14.5,3.61928813 14.5,5 L14.5,12 C14.5,13.3807119 13.3807119,14.5 12,14.5 L4,14.5 C2.61928813,14.5 1.5,13.3807119 1.5,12 L1.5,5 C1.5,3.61928813 2.61928813,2.5 4,2.5 L5,2.5 L5,2 C5,1.72385763 5.22385763,1.5 5.5,1.5 C5.77614237,1.5 6,1.72385763 6,2 L6,2.5 L10,2.5 L10,2 C10,1.72385763 10.2238576,1.5 10.5,1.5 Z M13.5,6.5 L2.5,6.5 L2.5,12 C2.5,12.8284271 3.17157288,13.5 4,13.5 L12,13.5 C12.8284271,13.5 13.5,12.8284271 13.5,12 L13.5,6.5 Z M12,9.5 C12.2761424,9.5 12.5,9.72385763 12.5,10 L12.5,12 C12.5,12.2761424 12.2761424,12.5 12,12.5 L10,12.5 C9.72385763,12.5 9.5,12.2761424 9.5,12 L9.5,10 C9.5,9.72385763 9.72385763,9.5 10,9.5 L12,9.5 Z M11.5,10.5 L10.5,10.5 L10.5,11.5 L11.5,11.5 L11.5,10.5 Z M5,3.5 L4,3.5 C3.17157288,3.5 2.5,4.17157288 2.5,5 L2.5,5.5 L13.5,5.5 L13.5,5 C13.5,4.17157288 12.8284271,3.5 12,3.5 L11,3.5 L11,4 C11,4.27614237 10.7761424,4.5 10.5,4.5 C10.2238576,4.5 10,4.27614237 10,4 L10,3.5 L6,3.5 L6,4 C6,4.27614237 5.77614237,4.5 5.5,4.5 C5.22385763,4.5 5,4.27614237 5,4 L5,3.5 Z" id="Combined-Shape" stroke="#5A5A5A" stroke-width="0.2" fill="#5A5A5A" fill-rule="nonzero"></path>
            </g>
        </g>
    </g>
</svg>