<?xml version="1.0" encoding="UTF-8"?>
<svg width="16px" height="16px" viewBox="0 0 16 16" version="1.1" xmlns="http://www.w3.org/2000/svg" xmlns:xlink="http://www.w3.org/1999/xlink">
    <title>Website Assets/SVG &amp; PDF/clock</title>
    <g id="Webapp" stroke="none" stroke-width="1" fill="none" fill-rule="evenodd">
        <g id="1" transform="translate(-1144, -352)">
            <g id="Website-Assets/SVG-&amp;-PDF/clock" transform="translate(1144, 352)">
                <rect id="Rectangle" x="0" y="0" width="16" height="16"></rect>
                <path d="M8,1 C11.8659932,1 15,4.13400675 15,8 C15,11.8659932 11.8659932,15 8,15 C4.13400675,15 1,11.8659932 1,8 C1,4.13400675 4.13400675,1 8,1 Z M8,1.93333333 C4.64947252,1.93333333 1.93333333,4.64947252 1.93333333,8 C1.93333333,11.3505275 4.64947252,14.0666667 8,14.0666667 C11.3505275,14.0666667 14.0666667,11.3505275 14.0666667,8 C14.0666667,6.39101996 13.4275018,4.84793956 12.2897811,3.71021886 C11.1520604,2.57249816 9.60898004,1.93333333 8,1.93333333 Z M8.46666667,4.26666667 L8.46666667,7.80866667 L10.6413333,9.97866667 L9.97866667,10.6413333 L7.66866667,8.33133333 C7.58131296,8.24326455 7.53261618,8.12404139 7.53332552,8 L7.53332552,4.26666667 L8.46666667,4.26666667 Z" id="Combined-Shape" stroke="#5A5A5A" stroke-width="0.4" fill="#5A5A5A" fill-rule="nonzero"></path>
            </g>
        </g>
    </g>
</svg>